Coordinates
version=1
nRows=13
nColumns=40
inDegrees=yes

Units are S.I. units (second, meters, Newtons, ...)
Angles are in degrees.

endheader
time	pelvis_tilt	pelvis_list	pelvis_rotation	pelvis_tx	pelvis_ty	pelvis_tz	hip_flexion_r	hip_adduction_r	hip_rotation_r	knee_angle_r	knee_angle_r_beta	ankle_angle_r	subtalar_angle_r	mtp_angle_r	hip_flexion_l	hip_adduction_l	hip_rotation_l	knee_angle_l	knee_angle_l_beta	ankle_angle_l	subtalar_angle_l	mtp_angle_l	lumbar_extension	lumbar_bending	lumbar_rotation	arm_flex_r	arm_add_r	arm_rot_r	elbow_flex_r	pro_sup_r	wrist_flex_r	wrist_dev_r	arm_flex_l	arm_add_l	arm_rot_l	elbow_flex_l	pro_sup_l	wrist_flex_l	wrist_dev_l
      5.39000000	     -4.14121019	     -3.01334547	      0.51703232	      0.83620954	      0.93152338	      0.41477149	     25.94496689	     -8.18005539	     -8.11197301	     70.09432662	     70.09432662	      6.06467284	    -14.56634647	      0.12507276	     15.85944922	     -3.33611710	     -9.17350575	     21.50531222	     21.50531222	     13.01292116	     -5.70286550	     -2.30503426	     -7.92679624	      2.64841787	      2.33207923	      5.65804398	    -12.75177782	      3.74534657	     29.94315522	     45.68634182	      0.00000000	      0.00000000	     13.70073197	    -12.14188944	      8.20287990	     42.70425791	     45.64455019	      0.00000000	      0.00000000
      5.40314286	     -4.08064387	     -3.02117074	      0.21599054	      0.83578279	      0.93237981	      0.41480495	     27.11565057	     -8.14944990	     -7.91835546	     69.41114855	     69.41114855	      5.95198029	    -14.45751579	      0.12259215	     14.76695782	     -3.30243825	     -9.39339928	     20.71737420	     20.71737420	     13.26932147	     -5.55272099	     -2.29519281	     -7.96544667	      2.62651977	      2.42705795	      3.65481865	    -13.44333177	      3.68763724	     28.85088555	     45.72538236	      0.00000000	      0.00000000	     14.88006112	    -12.25228885	      7.89097186	     43.90060931	     45.70389004	      0.00000000	      0.00000000
      5.41628571	     -4.03175155	     -3.07306921	     -0.06961663	      0.83532827	      0.93312749	      0.41492407	     28.20281207	     -8.02714603	     -7.76337416	     68.52816178	     68.52816178	      5.82325540	    -14.38902912	      0.17858599	     13.71801386	     -3.31939789	     -9.59019758	     19.96799335	     19.96799335	     13.49017678	     -5.40461510	     -2.34230607	     -8.00760592	      2.65036834	      2.49677295	      1.62354347	    -14.09569278	      3.51675426	     27.91189531	     45.76530989	      0.00000000	      0.00000000	     15.93266521	    -12.37580820	      7.50643089	     45.45358646	     45.77129738	      0.00000000	      0.00000000
      5.42942857	     -3.95360427	     -3.13398792	     -0.35970614	      0.83488944	      0.93379081	      0.41510991	     29.14036051	     -7.84244124	     -7.61794743	     67.38145678	     67.38145678	      5.69968208	    -14.26348858	      0.27865449	     12.65913328	     -3.33930375	     -9.79858073	     19.23803519	     19.23803519	     13.69871485	     -5.28716967	     -2.44897062	     -8.12515450	      2.67034211	      2.63268230	     -0.39333151	    -14.75186747	      3.21882674	     27.06876959	     45.81152016	      0.00000000	      0.00000000	     16.88261500	    -12.53573442	      7.01899153	     47.37766173	     45.85083647	      0.00000000	      0.00000000
      5.44257143	     -3.82981762	     -3.14829788	     -0.68516285	      0.83436740	      0.93427903	      0.41542006	     29.95103419	     -7.64118852	     -7.41666619	     65.96848999	     65.96848999	      5.59868403	    -14.05785871	      0.34918470	     11.60580613	     -3.32000643	    -10.03875775	     18.59546136	     18.59546136	     13.85630694	     -5.26649164	     -2.76666656	     -8.34500909	      2.62685136	      2.75278909	     -2.30702510	    -15.33694975	      2.52665089	     26.45549666	     45.88367287	      0.00000000	      0.00000000	     17.49882379	    -12.78161093	      6.25364799	     50.25176039	     45.96648960	      0.00000000	      0.00000000
      5.45571429	     -3.85779632	     -3.29931433	     -0.92129261	      0.83375278	      0.93455581	      0.41582772	     30.72360686	     -7.29854708	     -7.44539065	     64.10858610	     64.10858610	      5.52567628	    -13.79713223	      0.50767508	     10.78011884	     -3.45056338	    -10.15045239	     18.02358834	     18.02358834	     14.06693021	     -5.18768234	     -2.89645832	     -8.31334785	      2.79558130	      2.55735738	     -3.93907047	    -15.86625765	      2.14019696	     25.86843560	     45.92924628	      0.00000000	      0.00000000	     18.18022082	    -13.03517155	      5.72645393	     51.94292338	     46.04247658	      0.00000000	      0.00000000
      5.46885714	     -3.74349579	     -3.30036476	     -1.28003473	      0.83313987	      0.93474388	      0.41645121	     31.28402998	     -6.97859296	     -7.27486866	     61.93767023	     61.93767023	      5.45572141	    -13.50627947	      0.48531417	      9.79454323	     -3.43342215	    -10.43046192	     17.45984911	     17.45984911	     14.21990782	     -5.17809551	     -3.24305605	     -8.57707318	      2.73089563	      2.80993995	     -5.69213300	    -16.33297913	      1.23351729	     25.43970166	     46.01404035	      0.00000000	      0.00000000	     18.55753675	    -13.16705030	      4.63297747	     55.43243190	     46.19089216	      0.00000000	      0.00000000
      5.48200000	     -3.80339962	     -3.41569618	     -1.55453862	      0.83239600	      0.93456910	      0.41720470	     31.80949339	     -6.55957195	     -7.36171566	     59.25602990	     59.25602990	      5.20415673	    -13.16809024	     -0.15868110	      9.09949987	     -3.55033783	    -10.55244268	     17.02700812	     17.02700812	     14.24442041	     -5.30304704	     -3.96078277	     -8.63941193	      2.81036308	      1.97728961	     -6.74734227	    -16.59556806	     -0.98995380	     25.51381326	     46.20272821	      0.00000000	      0.00000000	     17.76927043	    -13.77539249	      2.52527497	     60.08994466	     46.44517366	      0.00000000	      0.00000000
      5.49514286	     -3.85164826	     -3.49469604	     -1.90239989	      0.83166973	      0.93436060	      0.41820070	     32.17820452	     -6.07806763	     -7.41068748	     56.16799556	     56.16799556	      5.10303989	    -12.67018551	     -0.37797348	      8.36914686	     -3.64289730	    -10.77097542	     16.58698987	     16.58698987	     14.46646697	     -5.33422593	     -4.12197331	     -8.65319546	      2.83895558	      2.24395033	     -8.15947504	    -16.95493601	     -1.86608998	     24.86475428	     46.29834528	      0.00000000	      0.00000000	     18.33665162	    -13.66865937	      1.56042904	     62.49139224	     46.57346999	      0.00000000	      0.00000000
      5.50828571	     -3.89149623	     -3.57377815	     -2.24395897	      0.83093514	      0.93396032	      0.41934066	     32.34171739	     -5.55437265	     -7.56572420	     52.61256957	     52.61256957	      4.71077476	    -12.21982266	     -1.48912421	      7.71244449	     -3.74966579	    -10.97432803	     16.30090288	     16.30090288	     14.65651700	     -5.45727621	     -4.46766049	     -8.76398701	      2.90172577	      1.89199168	     -9.06649291	    -17.15600758	     -3.85722707	     24.65397261	     46.47665214	      0.00000000	      0.00000000	     18.05381429	    -13.87941264	     -0.17557213	     66.18842898	     46.79586297	      0.00000000	      0.00000000
      5.52142857	     -3.94968802	     -3.62425724	     -2.63432122	      0.83026575	      0.93344306	      0.42067671	     32.37289470	     -5.00819991	     -7.77598696	     48.73147961	     48.73147961	      4.54569465	    -11.37383457	     -1.81566524	      7.05946470	     -3.83574946	    -11.22794244	     16.01960864	     16.01960864	     14.91512944	     -5.53750637	     -4.63393288	     -8.81851242	      2.90653907	      2.16335937	    -10.27073659	    -17.43402825	     -4.74290312	     24.44649892	     46.55080092	      0.00000000	      0.00000000	     18.27557601	    -13.79974565	     -1.06190234	     69.26055469	     46.92910610	      0.00000000	      0.00000000
      5.53457143	     -4.08717819	     -3.69158639	     -2.98865093	      0.82963760	      0.93272449	      0.42213662	     32.30342781	     -4.40473657	     -8.11379382	     44.53322827	     44.53322827	      4.53780699	    -10.26716166	     -1.44249005	      6.55815524	     -3.95448185	    -11.42725375	     15.86056586	     15.86056586	     15.21208434	     -5.72430720	     -4.72603231	     -8.69084805	      3.02089778	      2.36439759	    -11.27679224	    -17.70457682	     -4.92315913	     24.13533921	     46.57001402	      0.00000000	      0.00000000	     18.93177362	    -13.82677646	     -1.45696357	     70.73292141	     46.98711995	      0.00000000	      0.00000000
      5.54771429	     -4.22331298	     -3.81310138	     -3.43607552	      0.82919608	      0.93191668	      0.42401408	     32.03162055	     -3.66011270	     -8.55255883	     40.02723561	     40.02723561	      4.36218312	     -8.82800308	     -1.00161285	      5.96767731	     -4.14050997	    -11.66378972	     15.60845421	     15.60845421	     15.52771931	     -5.89613060	     -4.82963244	     -8.59341702	      3.08389117	      2.81582323	    -12.31383859	    -17.83515478	     -5.12777039	     23.92009366	     46.58618612	      0.00000000	      0.00000000	     19.45232419	    -13.70978853	     -1.93512054	     72.83741660	     47.06025664	      0.00000000	      0.00000000
